<?xml version="1.0" encoding="UTF-8"?>
<svg width="280px" height="280px" viewBox="0 0 280 280" version="1.1" xmlns="http://www.w3.org/2000/svg" xmlns:xlink="http://www.w3.org/1999/xlink">
    <title>Qishui Music</title>
    <defs>
        <path d="M280,192.410974 C280,195.758946 280,199.10083 279.975652,202.442715 C279.957391,205.261098 279.926957,208.079482 279.853913,210.891778 C279.776361,217.053554 279.235122,223.200752 278.234783,229.281273 C277.193913,235.368494 275.252174,241.260924 272.470435,246.76986 C266.832293,257.838818 257.833695,266.837808 246.765217,272.476195 C241.258814,275.254221 235.368754,277.195092 229.289565,278.234706 C223.202609,279.239097 217.054783,279.78086 210.894783,279.853907 C208.079087,279.926637 205.262694,279.96925 202.446087,279.981738 C199.098261,280 195.756522,280 192.414783,280 L87.5852174,280 C84.2434783,280 80.9017391,280 77.553913,279.981738 C74.7373276,279.971288 71.9209346,279.930704 69.1052174,279.859994 C62.9414903,279.781354 56.7924658,279.238051 50.7104348,278.234706 C44.6295652,277.199878 38.7373913,275.251967 33.2347826,272.476195 C22.1674814,266.839052 13.1690833,257.842394 7.52956522,246.775947 C4.7486783,241.263577 2.80583763,235.367096 1.76521739,229.281273 C0.764885007,223.202797 0.223644868,217.057623 0.146086957,210.897865 C0.0730434783,208.079482 0.0365217391,205.261098 0.0243478261,202.442715 C0,199.094743 0,195.758946 0,192.410974 L0,87.5890256 C0,84.241054 0,80.8930823 0.0243478261,77.5451107 C0.0365217391,74.7328145 0.0730434783,71.9144311 0.146086957,69.1021349 C0.223736959,62.942382 0.76497649,56.7972149 1.76521739,50.7187269 C2.80608696,44.6315057 4.74782609,38.7390756 7.52956522,33.2240532 C13.1677067,22.1550948 22.1663055,13.1561048 33.2347826,7.51771816 C38.7396276,4.74110388 44.6274673,2.80028908 50.7043478,1.75920692 C56.7913043,0.760902648 62.9391304,0.219139963 69.0991304,0.140006087 C71.9173913,0.066959433 74.7356522,0.0304361059 77.5478261,0.0182616636 C80.8956522,0 84.2434783,0 87.5791304,0 L192.408696,0 C195.756522,0 199.104348,0 202.446087,0.0182616636 C205.262672,0.0287216587 208.079065,0.0693054541 210.894783,0.140006087 C217.054783,0.219139963 223.202609,0.760902648 229.283478,1.75920692 C235.370435,2.80012174 241.256522,4.7419453 246.765217,7.51771816 C257.836455,13.1543849 266.837479,22.1536695 272.476522,33.2240532 C275.255067,38.7347172 277.195855,44.6291426 278.234783,50.7126397 C279.235191,56.7931521 279.77643,62.9403551 279.853913,69.1021349 C279.926957,71.9205183 279.963478,74.7389017 279.975652,77.5511979 C280,80.8991695 280,84.241054 280,87.5829384 L280,192.410974 Z" id="path-1"></path>
        <linearGradient x1="36.3348671%" y1="94.1214093%" x2="86.8457152%" y2="1.17400574e-14%" id="linearGradient-3">
            <stop stop-color="#24FFD0" offset="0%"></stop>
            <stop stop-color="#F4FD47" offset="100%"></stop>
        </linearGradient>
    </defs>
    <g id="Qishui-Music" stroke="none" stroke-width="1" fill="none" fill-rule="evenodd">
        <g id="Group">
            <mask id="mask-2" fill="white">
                <use xlink:href="#path-1"></use>
            </mask>
            <use id="base" fill="#FFFFFF" xlink:href="#path-1"></use>
            <g id="Graphic" mask="url(#mask-2)">
                <rect id="Rectangle" fill="#000000" x="0" y="0" width="280" height="280"></rect>
                <path d="M232,166.947017 L195.836377,166.947017 L175.716297,91.1869844 L220.129183,91.1869844 L208.127062,46 L163.714176,46 L117.194315,46 L135.537208,115.067699 C108.792373,115.375778 86.2859147,133.299277 79.1023529,157.768697 L117.154619,157.768697 L47,176.126863 L76.7220824,176.126863 L76.7220824,176.125338 C77.5694526,208.231157 103.88984,234 136.234953,234 C165.430292,234 189.71699,213.003334 194.792051,185.303658 L162.237767,185.303658 L232,166.947017 Z" id="Fill-4" fill="url(#linearGradient-3)"></path>
            </g>
        </g>
    </g>
</svg>